<svg width="20" height="20" viewBox="0 0 20 20" fill="none" xmlns="http://www.w3.org/2000/svg">
<path d="M19.8236 11L18.7036 12.1765L16.4077 9.76471L17.5276 8.58824C17.6428 8.46968 17.7976 8.40327 17.9588 8.40327C18.1201 8.40327 18.2749 8.46968 18.39 8.58824L19.8236 10.0941C20.0588 10.3412 20.0588 10.7529 19.8236 11ZM8.95982 17.5765L15.7469 10.4471L18.0428 12.8588L11.267 20H8.95982V17.5765ZM8.95982 11.7647C4.00952 11.7647 0 13.8706 0 16.4706V18.8235H6.71987V16.6L11.1998 11.8941C10.4606 11.8 9.71021 11.7647 8.95982 11.7647ZM8.95982 0C7.77167 0 6.63219 0.495797 5.79205 1.37832C4.9519 2.26084 4.47991 3.4578 4.47991 4.70588C4.47991 5.95396 4.9519 7.15092 5.79205 8.03344C6.63219 8.91597 7.77167 9.41177 8.95982 9.41177C10.148 9.41177 11.2874 8.91597 12.1276 8.03344C12.9677 7.15092 13.4397 5.95396 13.4397 4.70588C13.4397 3.4578 12.9677 2.26084 12.1276 1.37832C11.2874 0.495797 10.148 0 8.95982 0Z" fill="#FBFBFB"/>
</svg>
