<svg width="22" height="22" viewBox="0 0 22 22" fill="none" xmlns="http://www.w3.org/2000/svg">
<path d="M4.33333 11H7.66667M14.3333 11V14.3333M11 17.6667H14.3333M11 11.0122L11.0111 11M17.6667 11.0122L17.6778 11M11 14.3456L11.0111 14.3333M17.6667 14.3456L17.6778 14.3333M17.6667 17.6789L17.6778 17.6667M11 7.67889L11.0111 7.66667M11 4.34556L11.0111 4.33333M17.6667 1H21V4.33333M17.6667 21H21V17.6667M4.33333 1H1V4.33333M4.33333 21H1V17.6667M7.66667 5V7C7.66667 7.17681 7.59643 7.34638 7.47141 7.47141C7.34638 7.59643 7.17681 7.66667 7 7.66667H5C4.82319 7.66667 4.65362 7.59643 4.5286 7.47141C4.40357 7.34638 4.33333 7.17681 4.33333 7V5C4.33333 4.82319 4.40357 4.65362 4.5286 4.5286C4.65362 4.40357 4.82319 4.33333 5 4.33333H7C7.17681 4.33333 7.34638 4.40357 7.47141 4.5286C7.59643 4.65362 7.66667 4.82319 7.66667 5ZM7.66667 15V17C7.66667 17.1768 7.59643 17.3464 7.47141 17.4714C7.34638 17.5964 7.17681 17.6667 7 17.6667H5C4.82319 17.6667 4.65362 17.5964 4.5286 17.4714C4.40357 17.3464 4.33333 17.1768 4.33333 17V15C4.33333 14.8232 4.40357 14.6536 4.5286 14.5286C4.65362 14.4036 4.82319 14.3333 5 14.3333H7C7.17681 14.3333 7.34638 14.4036 7.47141 14.5286C7.59643 14.6536 7.66667 14.8232 7.66667 15ZM17.6667 5V7C17.6667 7.17681 17.5964 7.34638 17.4714 7.47141C17.3464 7.59643 17.1768 7.66667 17 7.66667H15C14.8232 7.66667 14.6536 7.59643 14.5286 7.47141C14.4036 7.34638 14.3333 7.17681 14.3333 7V5C14.3333 4.82319 14.4036 4.65362 14.5286 4.5286C14.6536 4.40357 14.8232 4.33333 15 4.33333H17C17.1768 4.33333 17.3464 4.40357 17.4714 4.5286C17.5964 4.65362 17.6667 4.82319 17.6667 5Z" stroke="#FBFBFB" stroke-width="1.5" stroke-linecap="round" stroke-linejoin="round"/>
</svg>
