<svg width="20" height="19" viewBox="0 0 20 19" fill="none" xmlns="http://www.w3.org/2000/svg">
<path d="M16.5078 6.63797C16.5075 6.5428 16.5052 6.44765 16.501 6.35258V0.957109L15.0094 2.44875C13.7885 0.954453 11.9314 0 9.8512 0C7.68644 0 5.76323 1.03328 4.54761 2.63359L6.99253 5.10422C7.23192 4.66194 7.571 4.28148 7.98292 3.99297C8.4098 3.65992 9.01456 3.3875 9.8512 3.3875C9.95229 3.3875 10.0303 3.39938 10.0876 3.42156C11.1242 3.50344 12.0228 4.07547 12.5517 4.90578L10.821 6.63641C13.0132 6.62781 15.4895 6.62281 16.5076 6.63758" fill="#1C3AA9"/>
<path d="M9.81253 0C9.71736 0.000270017 9.62221 0.00253614 9.52714 0.00679688H4.13167L5.62331 1.49844C4.12901 2.71922 3.17456 4.57641 3.17456 6.65656C3.17456 8.82141 4.20784 10.7446 5.80815 11.9603L8.27878 9.51539C7.8365 9.27598 7.45603 8.93687 7.16753 8.52492C6.83448 8.09813 6.56206 7.49328 6.56206 6.65664C6.56206 6.55562 6.57394 6.47758 6.59612 6.42023C6.678 5.38367 7.25003 4.48516 8.08034 3.95617L9.81097 5.6868C9.80237 3.49461 9.79729 1.01828 9.81214 0.00015625" fill="#4285F4"/>
<path d="M3.1748 6.65686C3.17512 6.75249 3.1773 6.84756 3.1816 6.94225V12.3377L4.67324 10.8461C5.89402 12.3404 7.75121 13.2948 9.83137 13.2948C11.9962 13.2948 13.9194 12.2615 15.1351 10.6612L12.6902 8.19061C12.4508 8.63289 12.1117 9.01335 11.6997 9.30186C11.2729 9.63491 10.6681 9.90733 9.83145 9.90733C9.73043 9.90733 9.65238 9.89545 9.59504 9.87319C8.55848 9.79139 7.65996 9.21928 7.13098 8.38905L8.8616 6.65834C6.66941 6.66694 4.19309 6.67202 3.17496 6.65725" fill="#ABABAB"/>
<path d="M4.29789 15.8728C4.13578 15.8728 3.99039 15.9035 3.8618 15.965C3.73416 16.0244 3.62215 16.1127 3.53469 16.223C3.44664 16.3348 3.37883 16.4704 3.33133 16.6297C3.28523 16.7877 3.26211 16.9645 3.26211 17.1602V17.7242C3.26211 17.9213 3.28523 18.0988 3.33133 18.2567C3.37883 18.4147 3.44594 18.5495 3.53266 18.6614C3.6193 18.7731 3.72406 18.8591 3.84711 18.9192C3.97008 18.9794 4.10852 19.0095 4.26227 19.0095C4.42023 19.0095 4.55859 18.9863 4.67742 18.9402C4.79766 18.8941 4.89828 18.8277 4.9793 18.741C5.06039 18.653 5.12258 18.5468 5.16594 18.4224C5.2107 18.298 5.23719 18.1567 5.24562 17.9988H4.85773C4.84797 18.1204 4.83117 18.2246 4.80742 18.3113C4.78367 18.3965 4.74867 18.4671 4.70258 18.523C4.65781 18.5775 4.59914 18.6181 4.52641 18.6446C4.45516 18.6698 4.36703 18.6824 4.26227 18.6824C4.15047 18.6824 4.05539 18.6579 3.97711 18.6089C3.89883 18.5586 3.83523 18.4902 3.78633 18.4034C3.73883 18.3168 3.70383 18.2155 3.68148 18.0995C3.66055 17.9834 3.65 17.8584 3.65 17.7241V17.1559C3.65 17.012 3.66258 16.8813 3.68773 16.7638C3.7143 16.6465 3.75414 16.5465 3.80727 16.4641C3.86039 16.3816 3.9275 16.318 4.00859 16.2732C4.08961 16.2271 4.18609 16.2041 4.29789 16.2041C4.39156 16.2041 4.47195 16.2181 4.53898 16.246C4.60529 16.2719 4.66329 16.3154 4.70672 16.3718C4.75148 16.4277 4.7857 16.499 4.80945 16.5856C4.83328 16.6724 4.8493 16.7757 4.85773 16.8959H5.24562C5.23859 16.731 5.21281 16.585 5.16805 16.4577C5.12328 16.3306 5.06109 16.2236 4.98141 16.137C4.90172 16.0502 4.80461 15.9846 4.69 15.9399C4.57672 15.8952 4.44609 15.8728 4.29789 15.8728ZM13.7666 15.8728C13.6045 15.8728 13.4591 15.9035 13.3305 15.965C13.2028 16.0244 13.0908 16.1127 13.0034 16.223C12.9153 16.3348 12.8476 16.4704 12.8 16.6297C12.7539 16.7877 12.7309 16.9645 12.7309 17.1602V17.7242C12.7309 17.9213 12.7539 18.0988 12.8 18.2567C12.8475 18.4147 12.9146 18.5495 13.0013 18.6614C13.088 18.7731 13.1927 18.8591 13.3158 18.9192C13.4388 18.9794 13.5772 19.0095 13.7309 19.0095C13.8889 19.0095 14.0273 18.9863 14.1461 18.9402C14.2663 18.8941 14.367 18.8277 14.448 18.741C14.5291 18.653 14.5912 18.5468 14.6346 18.4224C14.6794 18.298 14.7059 18.1567 14.7143 17.9988H14.3264C14.3166 18.1204 14.2998 18.2246 14.2761 18.3113C14.2523 18.3965 14.2174 18.4671 14.1712 18.523C14.1266 18.5775 14.0678 18.6181 13.9952 18.6446C13.9238 18.6698 13.8358 18.6824 13.7309 18.6824C13.6191 18.6824 13.5241 18.6579 13.4458 18.6089C13.3675 18.5586 13.3039 18.4902 13.255 18.4034C13.2075 18.3168 13.1726 18.2155 13.1502 18.0995C13.1292 17.9834 13.1187 17.8584 13.1187 17.7241V17.1559C13.1187 17.012 13.1313 16.8813 13.1565 16.7638C13.183 16.6465 13.2229 16.5465 13.276 16.4641C13.3291 16.3816 13.3962 16.318 13.4773 16.2732C13.5584 16.2271 13.6548 16.2041 13.7666 16.2041C13.8603 16.2041 13.9406 16.2181 14.0077 16.246C14.0748 16.2726 14.1307 16.3145 14.1755 16.3718C14.2202 16.4277 14.2544 16.499 14.2782 16.5856C14.302 16.6724 14.318 16.7757 14.3264 16.8959H14.7143C14.7073 16.731 14.6815 16.585 14.6367 16.4577C14.592 16.3306 14.5298 16.2236 14.4501 16.137C14.3704 16.0502 14.2733 15.9846 14.1587 15.9399C14.0454 15.8952 13.9148 15.8727 13.7666 15.8727L13.7666 15.8728ZM6.50797 15.9148L5.52461 18.9675H5.91875L6.1557 18.1707H7.18727L7.42836 18.9675H7.82258L6.83711 15.9148H6.50797ZM8.23766 15.9148V18.9675H8.62133V17.7723H9.21047C9.35727 17.7723 9.48727 17.752 9.60047 17.7116C9.71375 17.6696 9.80875 17.6095 9.88562 17.5313C9.96391 17.453 10.0226 17.3565 10.0617 17.2419C10.1023 17.1259 10.1226 16.9945 10.1226 16.8477C10.1226 16.7121 10.1023 16.5877 10.0617 16.4745C10.0227 16.3599 9.96461 16.2613 9.88773 16.1789C9.81086 16.095 9.71508 16.03 9.60047 15.9839C9.48719 15.9378 9.35727 15.9147 9.21047 15.9147H8.23766V15.9148ZM10.4161 15.9148V16.246H11.217V18.9675H11.6006V16.246H12.4038V15.9148H10.4161ZM15.2322 15.9148V18.9675H15.6158V17.5564H16.8445V18.9675H17.2303V15.9148H16.8445V17.2273H15.6159V15.9148H15.2322ZM18.6853 15.9148L17.702 18.9675H18.0963L18.3331 18.1707H19.3647L19.6059 18.9675H20L19.0145 15.9148H18.6854H18.6853ZM8.62125 16.246H9.21047C9.30414 16.246 9.38375 16.2627 9.44953 16.2963C9.51656 16.3299 9.57109 16.3746 9.61305 16.4306C9.65734 16.4885 9.68942 16.5548 9.70734 16.6255C9.72836 16.6981 9.73883 16.7737 9.73883 16.852C9.73883 16.9387 9.72836 17.0183 9.70734 17.091C9.68938 17.1591 9.65725 17.2227 9.61305 17.2776C9.57109 17.3293 9.51656 17.3698 9.44945 17.3991C9.38383 17.4285 9.30414 17.4432 9.21039 17.4432H8.62133L8.62125 16.246ZM6.67141 16.4515L7.08867 17.8395H6.25633L6.67141 16.4515ZM18.8489 16.4515L19.2661 17.8395H18.4338L18.8489 16.4515ZM0.788359 16.657C0.691875 16.657 0.608672 16.6814 0.538828 16.7304C0.470312 16.7793 0.413047 16.8457 0.366953 16.9295L0.360625 16.6989H0V18.9675H0.371094V17.3446C0.406094 17.2481 0.455703 17.172 0.52 17.1161C0.585625 17.0602 0.668828 17.0322 0.769453 17.0322C0.801641 17.0322 0.830313 17.0336 0.855391 17.0364C0.880625 17.0378 0.907891 17.0413 0.937188 17.0469L0.935156 16.6863C0.926388 16.6824 0.917215 16.6796 0.907812 16.6778C0.895565 16.6733 0.882971 16.6698 0.870156 16.6674C0.85559 16.6645 0.840882 16.6624 0.826094 16.6611C0.813683 16.6585 0.801045 16.6571 0.788359 16.6569V16.657ZM2.03586 16.657C1.9282 16.657 1.82414 16.6759 1.72344 16.7136C1.62281 16.7513 1.53336 16.8135 1.45508 16.9002C1.3782 16.9855 1.31602 17.0973 1.26852 17.2356C1.22094 17.3727 1.19719 17.5411 1.19719 17.7409V17.9967C1.19719 18.1701 1.2175 18.3203 1.25805 18.4475C1.29852 18.5747 1.35648 18.6803 1.43203 18.7641C1.50915 18.8468 1.60472 18.91 1.71094 18.9487C1.81992 18.9892 1.94219 19.0095 2.07781 19.0095C2.17563 19.0095 2.26297 18.9997 2.33992 18.9801C2.4182 18.9606 2.48734 18.9354 2.5475 18.9046C2.60375 18.8752 2.65591 18.8386 2.70266 18.7956C2.74382 18.7575 2.78104 18.7154 2.81375 18.6699L2.62086 18.435C2.59008 18.4727 2.55727 18.5077 2.52234 18.5398C2.48734 18.5706 2.44891 18.5978 2.40703 18.6216C2.36321 18.6447 2.31671 18.6623 2.26859 18.674C2.21299 18.6872 2.15598 18.6935 2.09883 18.6929C1.92687 18.6929 1.79477 18.6377 1.7025 18.5273C1.61164 18.4168 1.56625 18.24 1.56625 17.9968V17.9443H2.83266V17.7284C2.83266 17.5551 2.81797 17.402 2.78859 17.2692C2.75922 17.1364 2.71242 17.0246 2.64812 16.9338C2.58555 16.8443 2.5001 16.7734 2.4007 16.7283C2.30008 16.6807 2.17844 16.657 2.03586 16.657ZM2.03586 16.9757C2.11695 16.9757 2.18406 16.9903 2.23719 17.0197C2.28974 17.0485 2.33328 17.0913 2.36297 17.1434C2.39508 17.1965 2.4182 17.2601 2.43219 17.3342C2.4475 17.4069 2.45734 17.4873 2.46148 17.5753V17.6256H1.56828C1.57391 17.4984 1.5893 17.3929 1.61437 17.309C1.63961 17.2252 1.67242 17.1588 1.71297 17.1099C1.75492 17.0595 1.80313 17.0246 1.85766 17.005C1.91491 16.985 1.97521 16.975 2.03586 16.9756V16.9757Z" fill="#A6A6A6"/>
</svg>
